<?xml version="1.0" standalone="no"?>
<!DOCTYPE svg PUBLIC "-//W3C//DTD SVG 20010904//EN"
 "http://www.w3.org/TR/2001/REC-SVG-20010904/DTD/svg10.dtd">
<svg version="1.0" xmlns="http://www.w3.org/2000/svg"
 width="660.000000pt" height="660.000000pt" viewBox="0 0 660.000000 660.000000"
 preserveAspectRatio="xMidYMid meet">
<metadata>
Created by potrace 1.14, written by Peter Selinger 2001-2017
</metadata>
<g transform="translate(0.000000,660.000000) scale(0.100000,-0.100000)"
fill="#000000" stroke="none">
<path d="M390 6589 c-70 -14 -185 -75 -238 -127 -58 -57 -90 -105 -123 -187
l-24 -60 -3 -778 c-3 -850 -4 -835 55 -957 33 -68 132 -169 198 -203 114 -57
242 -72 360 -42 175 46 317 196 354 373 7 34 11 221 11 532 l0 480 483 0 c524
0 542 2 657 57 68 33 169 132 203 199 64 127 75 283 27 407 -47 125 -158 233
-297 289 l-58 23 -780 2 c-429 0 -800 -3 -825 -8z"/>
<path d="M4593 6585 c-185 -40 -340 -205 -373 -398 -42 -238 121 -487 359
-549 46 -12 107 -17 206 -17 l139 -1 -315 -317 c-296 -298 -317 -322 -348
-391 -87 -193 -49 -405 99 -552 103 -100 229 -147 375 -137 98 6 176 34 252
91 32 24 387 374 789 777 546 549 737 747 757 785 52 100 71 237 46 344 -41
179 -193 327 -378 366 -95 20 -1515 19 -1608 -1z"/>
<path d="M401 2379 c-128 -22 -279 -133 -344 -256 -56 -104 -57 -122 -57 -923
0 -810 1 -817 62 -933 42 -80 129 -166 207 -205 163 -81 365 -65 509 42 26 19
378 367 783 773 550 552 742 751 762 789 76 144 75 326 -1 468 -67 124 -214
225 -362 247 -62 10 -89 9 -151 -4 -149 -30 -162 -40 -511 -386 l-318 -315 0
129 c0 224 -40 336 -156 445 -72 66 -161 113 -248 129 -68 12 -99 12 -175 0z"/>
</g>
</svg>
